<svg aria-hidden="true" focusable="false" viewBox="0 0 24 24" class="" fill="currentColor"><path d="M17.862 2H7.138A3.142 3.142 0 004 5.138V6a1 1 0 000 2v3a1 1 0 000 2v3a1 1 0 000 2v.862A3.142 3.142 0 007.138 22h10.724A3.142 3.142 0 0021 18.862V5.138A3.142 3.142 0 0017.862 2zM19 18.862A1.14 1.14 0 0117.862 20H7.138A1.139 1.139 0 016 18.862V18a1 1 0 000-2v-3a1 1 0 000-2V8a1 1 0 000-2v-.862A1.14 1.14 0 017.138 4h10.724A1.14 1.14 0 0119 5.138v13.724z"></path><path d="M13.785 12.234c.05-.04.1-.086.151-.134.379-.38.591-.896.592-1.433v-.889a2.036 2.036 0 00-.6-1.436 2.078 2.078 0 00-2.869 0 2.03 2.03 0 00-.592 1.433v.89a2.03 2.03 0 00.743 1.566 2.03 2.03 0 00-1.632 1.988V15a1.252 1.252 0 001.25 1.25h3.334A1.254 1.254 0 0015.417 15v-.778a2.03 2.03 0 00-1.632-1.988z"></path></svg>
