<svg aria-hidden="true" focusable="false" viewBox="0 0 24 24" class="" width="24" height="24" fill="currentColor"><path d="M21.013 10a1.024 1.024 0 00-1 1l-.02 8.014a1 1 0 01-1 1l-14-.02a1 1 0 01-1-1l.02-14a1 1 0 011-1L13 4.01a1 1 0 100-2l-7.984-.02H5.01a3 3 0 00-3 3l-.02 14a3 3 0 003 3l14 .02h.006a3 3 0 003-2.994L22.01 11a1 1 0 00-.997-1z"></path><path d="M8.975 10.885L8 14.755a1 1 0 001.212 1.215l3.873-.962a1 1 0 00.465-.262l7.756-7.732a2.373 2.373 0 000-3.35l-.962-.964A2.359 2.359 0 0018.67 2a2.348 2.348 0 00-1.672.69l-7.759 7.731a1 1 0 00-.264.464zm1.872.757l7.559-7.536a.369.369 0 01.521.001l.966.969a.374.374 0 010 .522l-7.559 7.536-1.986.494.499-1.986z"></path></svg>
