<svg xmlns="http://www.w3.org/2000/svg" fill="none" viewBox="0 0 24 24" color="currentColor" focusable="false" aria-hidden="true" style="display: flex;"><path fill="#000000" d="M17.853 22.01h-.006L6.123 21.99a3.136 3.136 0 0 1-3.133-3.143l.021-13.723a3.138 3.138 0 0 1 3.137-3.134l11.725.018a3.136 3.136 0 0 1 3.137 3.143l-.021 13.723a3.138 3.138 0 0 1-3.136 3.134ZM6.148 3.99a1.137 1.137 0 0 0-1.137 1.136L4.99 18.851a1.137 1.137 0 0 0 1.136 1.14l11.725.018a1.137 1.137 0 0 0 1.136-1.136L19.01 5.15a1.136 1.136 0 0 0-1.137-1.14L6.149 3.991h-.001Z"></path><path fill="currentColor" d="m16 11.006-8-.012a2 2 0 0 1-2-2v-2a2 2 0 0 1 2-2l8 .012a2 2 0 0 1 2 2v2a2 2 0 0 1-2 2ZM8 6.994v2l8 .011v-2l-8-.01ZM7.315 13.237l-.034.034a.965.965 0 0 0-.002 1.365l.034.035a.965.965 0 0 0 1.365.002l.035-.035a.965.965 0 0 0 .002-1.364l-.035-.035a.965.965 0 0 0-1.365-.002ZM11.315 13.243l-.034.034a.965.965 0 0 0-.003 1.365l.035.035a.965.965 0 0 0 1.365.002l.034-.035a.965.965 0 0 0 .003-1.365l-.035-.034a.965.965 0 0 0-1.365-.002ZM7.31 16.236l-.034.034a.965.965 0 0 0-.002 1.365l.035.035a.965.965 0 0 0 1.364.002l.035-.035a.965.965 0 0 0 .002-1.364l-.035-.035a.965.965 0 0 0-1.364-.002ZM11.31 16.242l-.034.035a.965.965 0 0 0-.002 1.364l.034.035a.965.965 0 0 0 1.365.002l.035-.035a.965.965 0 0 0 .002-1.364l-.035-.035a.965.965 0 0 0-1.364-.002ZM15.992 18.006a1 1 0 0 1-1-1v-3a1 1 0 0 1 1-1 1 1 0 0 1 1 1v3a1 1 0 0 1-1 1Z"></path></svg>
