<svg xmlns="http://www.w3.org/2000/svg" fill="none" viewBox="0 0 24 24" color="currentColor"focusable="false" aria-hidden="true" style="display: flex;"><path fill="#000000" d="M17.862 2H7.138A3.142 3.142 0 0 0 4 5.138V6a1 1 0 0 0 0 2v3a1 1 0 0 0 0 2v3a1 1 0 0 0 0 2v.862A3.142 3.142 0 0 0 7.138 22h10.724A3.142 3.142 0 0 0 21 18.862V5.138A3.142 3.142 0 0 0 17.862 2ZM19 18.862A1.14 1.14 0 0 1 17.862 20H7.138A1.139 1.139 0 0 1 6 18.862V18a1 1 0 0 0 0-2v-3a1 1 0 0 0 0-2V8a1 1 0 0 0 0-2v-.862A1.14 1.14 0 0 1 7.138 4h10.724A1.14 1.14 0 0 1 19 5.138v13.724Z"></path><path fill="currentColor" d="M13.785 12.234c.05-.04.1-.086.151-.134.379-.38.591-.896.592-1.433v-.889a2.036 2.036 0 0 0-.6-1.436 2.078 2.078 0 0 0-2.869 0c-.379.38-.592.896-.592 1.433v.89a2.03 2.03 0 0 0 .743 1.566 2.03 2.03 0 0 0-1.632 1.988V15a1.252 1.252 0 0 0 1.25 1.25h3.334A1.254 1.254 0 0 0 15.417 15v-.778a2.03 2.03 0 0 0-1.632-1.988Z"></path></svg>
