<svg xmlns="http://www.w3.org/2000/svg" fill="none" viewBox="0 0 24 24" color="currentColor" focusable="false" aria-hidden="true" style="display: flex;"><path fill="#000000" d="M19.177 13.233a4.562 4.562 0 0 0 1.043-2.9V8.56a4.526 4.526 0 0 0-6.841-3.923 5.13 5.13 0 0 0-.846-1.178A5 5 0 0 0 4 7v2a5 5 0 0 0 1.258 3.312A5.01 5.01 0 0 0 2 17v3a2 2 0 0 0 2 2h16.11A1.892 1.892 0 0 0 22 20.11v-2.67a4.556 4.556 0 0 0-2.823-4.207ZM4 20v-3a3 3 0 0 1 3-3 1 1 0 0 0 1-1v-.54a1 1 0 0 0-.5-.868A3 3 0 0 1 6 9V7a3 3 0 1 1 6 0v2a3 3 0 0 1-.863 2.109c-.19.185-.4.347-.63.48a.999.999 0 0 0-.507.871V13a1 1 0 0 0 1 1 3 3 0 0 1 3 3v3H4Zm16 0h-4v-3a5.007 5.007 0 0 0-3.255-4.686A4.992 4.992 0 0 0 14 9V7c0-.115-.025-.226-.033-.339a2.626 2.626 0 0 1 3.5.08 2.58 2.58 0 0 1 .753 1.819v1.77a2.546 2.546 0 0 1-1.275 2.211 1 1 0 0 0-.5.869v.48a1 1 0 0 0 1 1A2.558 2.558 0 0 1 20 17.44V20Z"></path></svg>
