<svg width="24px" height="24px" viewBox="0 0 24 24" fill="none" xmlns="http://www.w3.org/2000/svg" color="currentColor" focusable="false" aria-hidden="true" class=""><path d="m18.016 2.01-12-.019a3 3 0 0 0-3 3l-.022 14a3 3 0 0 0 3 3l12 .018a3 3 0 0 0 3-3 1 1 0 1 0-2 0 1 1 0 0 1-1 1l-12-.018a1 1 0 0 1-1-1l.022-14a1 1 0 0 1 1-1l12 .018a1 1 0 0 1 1 1L19 8.961a1 1 0 0 0 2 0l.011-3.954a3 3 0 0 0-2.995-2.998Z" fill="currentColor"></path><path d="M16.3 17.7a1 1 0 0 0 1.414 0l2.995-3.005a1 1 0 0 0 0-1.414l-3-2.995a1.002 1.002 0 1 0-1.42 1.414l1.3 1.291h-2.647A4.946 4.946 0 0 0 10 17.971a1 1 0 0 0 1 .993h.006A1 1 0 0 0 12 17.958a2.946 2.946 0 0 1 2.941-2.965h2.646l-1.287 1.29a1 1 0 0 0 0 1.417Z" fill="currentColor"></path></svg>
