<svg aria-hidden="true" focusable="false" viewBox="0 0 24 24" class="" width="24" height="24" fill="currentColor"><path d="M20.988 8.939a1 1 0 00-.054-.265.973.973 0 00-.224-.374v-.005l-6-6a1 1 0 00-.283-.191c-.031-.014-.064-.022-.1-.034a.992.992 0 00-.259-.052C14.042 2.011 14.023 2 14 2H6a3 3 0 00-3 3v14a3 3 0 003 3h12a3 3 0 003-3V9c0-.022-.011-.04-.012-.061zM15 5.414L17.586 8H16a1 1 0 01-1-1V5.414zM18 20H6a1 1 0 01-1-1V5a1 1 0 011-1h7v3a3 3 0 003 3h3v9a1 1 0 01-1 1z"></path><path d="M7 10h3a1 1 0 100-2H7a1 1 0 000 2zm7 3H7a1 1 0 000 2h7a1 1 0 000-2zm0 3H7a1 1 0 000 2h7a1 1 0 000-2z"></path></svg>
