<svg xmlns="http://www.w3.org/2000/svg" fill="none" viewBox="0 0 24 24" color="currentColor" focusable="false" aria-hidden="true" style="display: flex;"><path fill="#000000" d="m21.579 8.2-8.992-6.013a1 1 0 0 0-1.109 0L2.469 8.172a1 1 0 1 0 1.107 1.666L4 9.558 3.98 21a1 1 0 0 0 1 1l5.02.01a1 1 0 0 0 1-1l.01-4.01A1 1 0 1 1 13 17l-.01 4a1 1 0 0 0 1 1l5.01.01c.263-.012.513-.115.708-.29a1 1 0 0 0 .292-.708l.018-11.449.448.3A1 1 0 1 0 21.579 8.2ZM18 20.008 14.992 20 15 17a3.009 3.009 0 0 0-2.932-3h-.08a3.01 3.01 0 0 0-2.978 3L9 20.008 5.981 20 6 8.227l6.029-4.007 5.991 4.007L18 20.008Z"></path></svg>
