<svg aria-hidden="true" class="qbo-logo-wordmark shift-down" width="126" height="30" fill="none" xmlns="http://www.w3.org/2000/svg"><path d="M8.74043 29.5318H6.71201V24.3937H6.67701C6.15244 25.2039 5.1207 25.711 3.98994 25.711C1.52141 25.711 6.10352e-05 23.7496 6.10352e-05 21.3831C6.10352e-05 18.9816 1.62338 17.1222 3.93744 17.1222C5.4238 17.1222 6.33896 17.8479 6.74407 18.492H6.79358V17.3583H8.73749V29.5318H8.74043ZM4.39794 24.0206C5.8843 24.0206 6.78191 22.6859 6.78191 21.4181C6.78191 20.1503 5.88719 18.7805 4.39794 18.7805C2.82708 18.7805 2.06638 20.1153 2.06638 21.3831C2.06348 22.6509 2.82414 24.0206 4.39794 24.0206Z" fill="white"></path><path d="M17.8518 25.4747H15.9254V24.172H15.8904C15.5348 24.9822 14.5731 25.7108 13.3723 25.7108C11.2594 25.7108 10.3792 24.0875 10.3792 22.4321V17.361H12.4077V21.8579C12.4077 22.8226 12.6262 24.0204 13.929 24.0204C15.2142 24.0204 15.8234 22.9042 15.8234 21.823V17.361H17.8518V25.4747Z" fill="white"></path><path d="M19.8846 17.1834H21.9131V25.2972H19.8846V17.1834Z" fill="white"></path><path d="M29.5033 19.6082C29.1827 19.1507 28.489 18.8126 27.8302 18.8126C26.3439 18.8126 25.5978 20.1474 25.5978 21.4152C25.5978 22.6829 26.3586 24.0178 27.8973 24.0178C28.5238 24.0178 29.2145 23.7642 29.6052 23.2921L30.8729 24.5774C30.1964 25.3031 29.0802 25.7111 27.8797 25.7111C25.4782 25.7111 23.4845 24.1227 23.4845 21.4181C23.4845 18.7806 25.4463 17.1251 27.8302 17.1251C29.0135 17.1251 30.2464 17.5973 30.8901 18.3929L29.5033 19.6082Z" fill="white"></path><path d="M31.8865 12.695H33.915V20.7738H33.9645L37.042 17.3581H39.6445L36.1297 21.0274L39.8661 25.4719H37.1793L33.9674 21.313H33.9179V25.4719H31.8895V12.695H31.8865Z" fill="white"></path><path d="M42.8226 12.695V18.3927H42.8722C43.2947 17.8681 44.105 17.1249 45.5943 17.1249C47.911 17.1249 49.5316 18.9843 49.5316 21.3859C49.5316 23.7524 48.01 25.7138 45.5418 25.7138C44.408 25.7138 43.3089 25.1892 42.7525 24.2595H42.7177V25.4777H40.7912V12.695H42.8226ZM45.1394 18.7804C43.653 18.7804 42.7555 20.1502 42.7555 21.4179C42.7555 22.6857 43.6501 24.0205 45.1394 24.0205C46.7105 24.0205 47.4708 22.6507 47.4708 21.3829C47.4708 20.1152 46.7105 18.7804 45.1394 18.7804Z" fill="white"></path><path d="M54.8217 17.1251C57.2728 17.1251 59.2346 18.833 59.2346 21.3861C59.2346 23.9391 57.2728 25.714 54.8217 25.714C52.3707 25.714 50.4094 23.9391 50.4094 21.3861C50.4094 18.833 52.3707 17.1251 54.8217 17.1251ZM54.8217 24.0207C56.4277 24.0207 57.1708 22.6509 57.1708 21.3831C57.1708 20.1153 56.4277 18.7806 54.8217 18.7806C53.2158 18.7806 52.4727 20.1153 52.4727 21.3831C52.4727 22.6509 53.2158 24.0207 54.8217 24.0207Z" fill="white"></path><path d="M64.5276 17.1251C66.9786 17.1251 68.9399 18.833 68.9399 21.3861C68.9399 23.9391 66.9786 25.714 64.5276 25.714C62.0765 25.714 60.1152 23.9391 60.1152 21.3861C60.1152 18.833 62.0765 17.1251 64.5276 17.1251ZM64.5276 24.0207C66.1335 24.0207 66.8766 22.6509 66.8766 21.3831C66.8766 20.1153 66.1335 18.7806 64.5276 18.7806C62.9216 18.7806 62.1785 20.1153 62.1785 21.3831C62.1756 22.6509 62.9216 24.0207 64.5276 24.0207Z" fill="white"></path><path d="M70.1745 12.695H72.203V20.7738H72.2525L75.3305 17.3581H77.933L74.4182 21.0274L78.1546 25.4719H75.4673L72.2555 21.313H72.2059V25.4719H70.1775V12.695H70.1745Z" fill="white"></path><path d="M83.6858 19.5237C83.3299 19.0516 82.6539 18.6435 81.9108 18.6435C81.2696 18.6435 80.6078 18.8796 80.6078 19.5237C80.6078 20.1503 81.2348 20.3193 82.3652 20.5875C83.5662 20.876 84.9854 21.4152 84.9854 23.0035C84.9854 24.9824 83.3795 25.7081 81.6049 25.7081C80.3544 25.7081 79.0519 25.236 78.2735 24.3733L79.6083 23.123C80.0485 23.6972 80.8093 24.1373 81.6863 24.1373C82.278 24.1373 82.9892 23.9012 82.9892 23.1726C82.9892 22.4964 82.3623 22.2924 81.1299 22.0068C79.9289 21.7182 78.7284 21.2286 78.7284 19.7073C78.7284 17.8975 80.3514 17.1222 81.9574 17.1222C83.1231 17.1222 84.3412 17.5273 85.0001 18.355L83.6858 19.5237Z" fill="white"></path><path d="M22.2242 6.28353C22.2242 8.34113 23.8708 9.84499 25.9635 9.84499C28.0561 9.84499 29.7057 8.34407 29.7057 6.28353V1.55926H27.6772V6.04167C27.6772 7.15203 26.9341 7.89524 25.9576 7.89524C24.9781 7.89524 24.2379 7.15203 24.2379 6.04167V1.55926H22.2124L22.2242 6.28353Z" fill="white"></path><path d="M35.1227 3.45655H37.5419V9.6818H39.5674V3.45655H41.9831V1.55926H35.1227V3.45655Z" fill="white"></path><path d="M33.8123 1.55926H31.7867V9.6818H33.8123V1.55926Z" fill="white"></path><path d="M14.0417 3.45655H16.4606V9.6818H18.4862V3.45655H20.9023V1.55926H14.0417V3.45655Z" fill="white"></path><path d="M3.41332 1.55926H1.38779V9.6818H3.41332V5.62195V1.55926Z" fill="white"></path><path d="M12.9737 4.95713C12.9737 2.89955 11.3242 1.3957 9.23159 1.3957C7.13905 1.3957 5.4895 2.89663 5.4895 4.95713V9.68144H7.51503V5.19904C7.51503 4.08863 8.25819 3.34545 9.23453 3.34545C10.2109 3.34545 10.954 4.08863 10.954 5.19904V9.68144H12.9796L12.9737 4.95713Z" fill="white"></path></svg>
