<svg xmlns="http://www.w3.org/2000/svg" fill="none" viewBox="0 0 24 24" color="currentColor" focusable="false" aria-hidden="true" style="display: flex;"><path fill="#000000" d="M21 14h-.5L19 12V5.67A2.673 2.673 0 0 0 16.33 3H4.67A2.673 2.673 0 0 0 2 5.67v7.66A2.673 2.673 0 0 0 4.67 16h.712L7 19.236A4.973 4.973 0 0 0 11.472 22H21a2 2 0 0 0 2-2v-4a2 2 0 0 0-2-2Zm-17-.67V5.67A.671.671 0 0 1 4.67 5h11.66a.671.671 0 0 1 .67.67v4.759A4.985 4.985 0 0 0 15 10h-1.533c.021-.166.032-.333.033-.5a3.778 3.778 0 0 0-.809-2.395A2.723 2.723 0 0 0 8.318 7.1c-.54.682-.83 1.53-.818 2.4a3.623 3.623 0 0 0 1.551 3.06 3 3 0 0 0-.01.937c.028.17.072.338.132.5H4.67A.67.67 0 0 1 4 13.33Zm6.013-2.556A1.684 1.684 0 0 1 9.5 9.5c-.01-.413.12-.817.371-1.145A.857.857 0 0 1 10.5 8a.869.869 0 0 1 .638.366A1.8 1.8 0 0 1 11.5 9.5c-.002.19-.03.38-.082.563a2.977 2.977 0 0 0-1.405.711ZM21 20h-9.528a2.984 2.984 0 0 1-2.683-1.658L7.618 16h6.492a1 1 0 0 0 0-2h-2a1.087 1.087 0 0 1-1.093-.824A1 1 0 0 1 12 12h3a3.014 3.014 0 0 1 2.4 1.2l1.8 2.4a.999.999 0 0 0 .8.4h1v4Z"></path></svg>
