<svg aria-hidden="true" focusable="false" viewBox="0 0 24 24" class="" width="24" height="24" fill="currentColor"><path d="M21.133 4.892a2.982 2.982 0 00-2.12-.882l-14-.02h-.005a3 3 0 00-3 3l-.015 10a3 3 0 003 3h2a1 1 0 100-2h-2a1 1 0 01-1-1l.009-6 16 .024-.009 6a1 1 0 01-1 1h-2a1 1 0 000 2H19a3 3 0 003-3l.015-10a2.981 2.981 0 00-.882-2.122zM4.006 8.988v-2a1 1 0 011-1l14 .02a1 1 0 011 1v2l-16-.02z"></path><path d="M15.707 15.293a1 1 0 00-1.414 0L12 17.586l-.793-.793a1 1 0 00-1.414 1.414l1.5 1.5a1 1 0 001.414 0l3-3a1 1 0 000-1.414z"></path></svg>
