<svg xmlns="http://www.w3.org/2000/svg" fill="none" viewBox="0 0 24 24" color="#FFFFFF" focusable="false" aria-hidden="true"><path fill="#000000" d="M20.912 4.527 19.5 3.111a2.978 2.978 0 0 0-2.12-.88 2.98 2.98 0 0 0-2.118.873L3.927 14.4a1 1 0 0 0-.227.375c-.01.03-.026.056-.034.085L2.24 20.52a1 1 0 0 0 1.211 1.215L9.11 20.33c.033-.008.062-.026.094-.037a1 1 0 0 0 .367-.223l11.331-11.3a3 3 0 0 0 .01-4.243ZM5.171 17.067l1.662 1.666.081.08-2.328.579.585-2.325Zm3.7.878-1.412-1.416-1.412-1.418 8.5-8.472 1.412 1.416 1.412 1.416-8.5 8.474ZM19.494 7.353l-.709.706-1.412-1.416-1.412-1.417.708-.706a1 1 0 0 1 1.412.003L19.5 5.94a1 1 0 0 1-.006 1.414Z"></path></svg>
