<svg width="24px" height="24px" viewBox="0 0 24 24" fill="none" xmlns="http://www.w3.org/2000/svg" color="currentColor" focusable="false" aria-hidden="true" class=""><path d="M5.292 12.283a1 1 0 1 0 1.415 1.413 1 1 0 0 0-1.415-1.413Z" fill="currentColor"></path><path d="M19 9.01h-1l.008-5a2 2 0 0 0-2-2l-8-.012a2 2 0 0 0-2 2L6 8.991H5a3 3 0 0 0-3 2.995l-.007 5a3.006 3.006 0 0 0 3 3h1.182a2.965 2.965 0 0 0 2.815 2l6 .008h.006a3 3 0 0 0 2.814-2H19a3.006 3.006 0 0 0 3-3l.007-5A3 3 0 0 0 19 9.01ZM8.012 3.994l8 .011-.008 5L8 8.994l.012-5ZM14.99 20l-6-.008a1 1 0 1 1 0-2l6 .008a1 1 0 1 1 0 2Zm5-2.993a1.006 1.006 0 0 1-1 1h-1.183a3 3 0 0 0-2.813-2l-6-.008h-.005a2.969 2.969 0 0 0-2.816 2H4.992a1.006 1.006 0 0 1-1-1l.007-5a1 1 0 0 1 1-1H5l14 .02a1 1 0 0 1 1 1l-.01 4.988Z" fill="currentColor"></path></svg>
