<svg xmlns="http://www.w3.org/2000/svg" fill="none" viewBox="0 0 24 24" color="currentColor" focusable="false" aria-hidden="true" style="display: flex;"><path fill="#000000" d="m20.989 20.013-16-.023a1 1 0 0 1-1-1l.023-16a1 1 0 0 0-1-1 1 1 0 0 0-1 1l-.023 16a3 3 0 0 0 3 3l16 .023a1 1 0 1 0 0-2Z"></path><path fill="currentColor" d="M5.46 18.838a.999.999 0 0 0 1.379-.316l4.236-6.757L13.2 14.6a1.019 1.019 0 0 0 .867.4 1 1 0 0 0 .806-.511l4.172-7.483a2.017 2.017 0 1 0-1.745-.977l-3.424 6.14-2.076-2.77a1 1 0 0 0-1.648.068L5.144 17.46a1 1 0 0 0 .316 1.378Z"></path></svg>
